Coordinates
version=1
nRows=17
nColumns=36
inDegrees=yes

Units are S.I. units (second, meters, Newtons, ...)
If the header above contains a line with 'inDegrees', this indicates whether rotational values are in degrees (yes) or radians (no).

endheader
time	pelvis_tilt	pelvis_list	pelvis_rotation	pelvis_tx	pelvis_ty	pelvis_tz	hip_flexion_r	hip_adduction_r	hip_rotation_r	knee_angle_r	knee_angle_r_beta	ankle_angle_r	subtalar_angle_r	mtp_angle_r	hip_flexion_l	hip_adduction_l	hip_rotation_l	knee_angle_l	knee_angle_l_beta	ankle_angle_l	subtalar_angle_l	mtp_angle_l	lumbar_extension	lumbar_bending	lumbar_rotation	arm_flex_r	arm_add_r	arm_rot_r	elbow_flex_r	pro_sup_r	arm_flex_l	arm_add_l	arm_rot_l	elbow_flex_l	pro_sup_l
      3.70000000	     -3.99502804	     -9.66577492	      9.44647082	      0.38115203	      0.91381695	     -0.30186361	     50.07533622	     -4.31223630	      1.90766705	     10.24298911	      0.17877389	    -12.44227815	    -11.41356280	     -7.49999981	     33.89513671	      4.42174240	      9.79909461	     55.90228074	      0.97567886	     23.86544967	    -12.32097649	     -7.49999981	    -27.72909582	     -0.21251836	     -1.36035639	     51.65027993	      2.14347218	     62.50499772	    123.15122025	     91.95151232	     53.27453984	      1.81818528	     46.51826710	    114.75295715	     78.45257798
      3.71666670	     -3.57936325	     -9.80717767	      8.98907568	      0.38125295	      0.91926304	     -0.30150900	     49.62571231	     -3.78075603	      1.91683152	     10.58301432	      0.18470844	    -12.36971869	    -11.81499033	     -7.49999982	     32.94739159	      3.67113288	      9.11881422	     55.03599690	      0.96055935	     23.75143115	    -11.59265165	     -7.49999982	    -26.94789462	     -0.04876796	     -1.57617418	     52.04644778	      2.56837554	     63.71353210	    123.31887726	     92.53153563	     52.62429681	      2.74904404	     52.18563901	    117.43830793	     79.34009402
      3.73333330	     -3.11692690	     -9.90096337	      8.83448971	      0.38037061	      0.92422556	     -0.30104907	     49.07705617	     -3.48090179	      1.65477534	     10.60810833	      0.18514642	    -12.28415005	    -12.10228496	     -7.49999982	     32.06117405	      3.03209421	      8.76966958	     54.03299817	      0.94305372	     23.31598016	    -11.49554166	     -7.49999982	    -26.04896748	      0.08227522	     -1.49933864	     52.48315261	      2.56847339	     64.19133885	    123.38425353	     92.84191707	     52.71621045	      3.55880043	     58.49091169	    119.54186358	     80.16937207
      3.75000000	     -2.48969364	     -9.70785694	      9.37610338	      0.38527160	      0.93653834	     -0.30357517	     47.60338235	     -3.73080042	      1.08115659	     10.02821320	      0.17502534	    -11.89605685	    -12.03204050	     -7.49999983	     29.97552876	      2.83256747	      8.75361010	     51.64685540	      0.90140768	     22.80121819	    -11.09538021	     -7.49999983	    -25.22904307	     -0.22560970	     -1.22944892	     51.79895866	      1.98831464	     64.20572684	    123.77877481	     94.86124087	     53.11177926	      4.86357621	     65.15737692	    120.11025699	     83.63901332
      3.76666670	     -2.02727389	     -9.65395405	      9.96632911	      0.38234979	      0.94613508	     -0.30580770	     46.29183036	     -4.21203257	      0.07320339	      8.98818730	      0.15687346	    -11.53216055	    -10.78956312	     -7.49999983	     28.16561025	      2.72275949	      8.89138010	     48.94389441	      0.85423211	     21.92925498	    -10.18988160	     -7.49999983	    -24.54626495	      0.03009266	     -1.25961212	     51.70665224	      1.87612534	     64.63491800	    123.32396711	     94.66336327	     53.53181067	      5.35393984	     70.48304895	    121.05062738	     83.92771582
      3.78333330	     -1.71484919	     -9.67536235	      9.62632253	      0.38286127	      0.94658891	     -0.30569460	     45.92326884	     -4.18714456	     -0.40242592	      8.79133936	      0.15343782	    -11.46675721	     -9.58368186	     -7.49999983	     26.68706818	      2.34171026	      8.69023896	     47.05130940	      0.82120027	     22.20760913	     -9.60852251	     -7.49999983	    -23.81488425	      0.04225147	     -0.69594972	     51.44895930	      1.44647564	     64.55730738	    123.01940972	     92.96441097	     54.80244711	      6.42799388	     74.00355079	    120.48179375	     83.00806916
      3.80000000	     -1.52067479	     -9.84534947	      9.89311649	      0.38608601	      0.95328160	     -0.30318910	     45.58040265	     -4.06302469	     -0.40637634	      9.00377823	      0.15714558	    -11.80491994	    -10.02169210	     -7.49999983	     25.26162788	      1.92351121	      9.04898123	     44.90567845	      0.78375194	     21.69583791	     -9.20157697	     -7.49999983	    -22.93792320	      0.35110221	     -0.58957068	     51.61960908	      1.06942965	     64.31545404	    122.02688557	     92.59523035	     56.11620422	      6.82399503	     76.25328471	    120.59931286	     82.92554676
      3.81666670	     -1.60350330	    -10.09985536	      9.64025464	      0.38557715	      0.95480638	     -0.30325590	     45.71143542	     -3.74652273	     -0.45176192	      9.50963732	      0.16597448	    -11.97103034	    -10.24369435	     -7.49999984	     24.52207053	      1.54251440	      9.41195504	     43.40404442	      0.75754348	     21.13122499	     -8.94383643	     -7.49999984	    -21.94760699	      0.58180358	     -0.07500182	     51.47471777	      0.68642129	     63.68234147	    121.56546425	     90.62423314	     57.02964524	      6.78978729	     77.59850051	    121.64785570	     81.38900972
      3.83333330	     -1.59026806	    -10.43566738	      9.77113847	      0.38839566	      0.96241144	     -0.30102261	     45.79469600	     -3.25664719	      0.35124911	     10.33158423	      0.18032016	    -12.25493923	    -11.26949186	     -7.49999984	     23.58725627	      1.01462136	      9.93360018	     41.64418219	      0.72682809	     20.25865039	     -8.47573942	     -7.49999984	    -21.12206520	      0.80176810	      0.09418908	     50.77557620	      0.63856978	     62.61695584	    121.33572439	     90.17225786	     57.60387038	      6.65345879	     78.35231020	    121.97374500	     81.15017700
      3.85000000	     -1.54494060	    -10.60740750	     10.04081175	      0.38894428	      0.96895389	     -0.30128358	     45.42641161	     -3.05026203	      0.45992955	     10.29692484	      0.17971524	    -12.44663584	    -11.44844681	     -7.49999984	     22.66473588	      0.71731687	     10.44805805	     40.08931579	      0.69969056	     19.47846261	     -7.58956809	     -7.49999984	    -20.50496020	      0.98859993	      0.11983902	     50.64299523	      0.41165897	     61.89230686	    121.25390674	     89.84504198	     57.93852278	      6.04957478	     78.71762662	    122.60344588	     80.91435315
      3.86666670	     -1.09139283	    -10.65132118	     10.29196581	      0.38612471	      0.97881701	     -0.30335353	     44.69778902	     -2.94859529	     -0.08868741	     10.24316431	      0.17877694	    -12.61322736	    -11.74281849	     -7.49999984	     21.39627328	      0.60112692	     10.95847088	     38.47617918	      0.67153601	     17.81165843	     -7.93956456	     -7.49999984	    -20.56229058	      1.17042143	     -0.04368530	     50.22289566	      0.31488080	     61.25075921	    120.75499927	     89.43877558	     57.81578474	      4.95249172	     78.78760668	    123.44468830	     80.49756559
      3.88333330	     -0.62401671	    -10.69305037	     10.66206500	      0.38734206	      0.98252375	     -0.30340995	     43.90941165	     -2.86320788	     -0.75644851	     10.29528993	      0.17968671	    -12.82625246	    -12.06412574	     -7.49999984	     20.38484222	      0.47743142	     11.31937619	     37.22439219	      0.64968821	     16.25898001	     -8.18827904	     -7.49999984	    -20.68719077	      1.41984903	     -0.59549830	     49.91696840	      0.74189573	     61.13761829	    120.56903111	     87.52180826	     57.90813860	      4.26302425	     78.30607670	    124.51100361	     78.64443621
      3.90000000	     -0.48760860	    -10.83382314	     10.72173511	      0.38767873	      0.98313944	     -0.30309038	     43.59193731	     -2.83735864	     -1.55105481	     10.40508346	      0.18160297	    -12.94155861	    -11.97512476	     -7.49999985	     19.93900015	      0.17817716	     11.18538957	     36.41677317	      0.63559259	     15.56853985	     -7.73874569	     -7.49999985	    -20.46899354	      1.59296820	     -0.69442583	     49.78413901	      0.87739607	     60.99983199	    120.70803223	     86.80798522	     57.91777349	      4.27287010	     77.98890707	    124.92933937	     78.18126083
      3.91666670	     -0.10437003	    -11.12027952	     10.65965352	      0.38758016	      0.98614827	     -0.30277528	     43.15298065	     -2.47859972	     -2.06151354	     10.76323822	      0.18785395	    -13.34559247	    -13.39535893	     -7.49999985	     19.34525560	     -0.27662727	     11.27138661	     35.69915181	      0.62306774	     14.76105430	     -7.88002231	     -7.49999985	    -20.49771283	      1.98851482	     -0.92444645	     50.33164207	      1.19367432	     60.78889637	    120.62592445	     86.17198980	     58.41693602	      4.30102124	     77.23834560	    125.10823664	     77.40546436
      3.93333330	     -0.19115681	    -11.46984444	     10.67797437	      0.39092462	      0.98883592	     -0.30023649	     43.18346751	     -2.15896573	     -2.76049983	     11.25553805	      0.19644620	    -13.60176558	    -14.38786682	     -7.49999985	     19.03137198	     -0.95124336	     11.07953020	     34.89422350	      0.60901909	     13.88485546	     -8.63892343	     -7.49999985	    -19.93175995	      2.21764418	     -0.90694339	     50.26215680	      1.27069935	     60.58925853	    120.47063394	     85.44407848	     58.08289875	      3.95416871	     77.15523721	    125.24266034	     76.60140871
      3.95000000	     -0.20222930	    -11.75971609	     10.60429149	      0.39066591	      0.99151817	     -0.30017810	     43.11338393	     -1.90027783	     -3.43539059	     11.46332366	      0.20007274	    -13.96130738	    -15.08070694	     -7.49999985	     18.56475788	     -1.41662460	     11.19355680	     34.01436630	      0.59366268	     13.73418773	     -8.65833212	     -7.49999985	    -19.36113787	      2.46409122	     -0.71494964	     50.21693518	      1.11475990	     60.46520507	    120.65606933	     84.11435382	     57.49789579	      3.58979526	     76.69520695	    125.54207030	     75.42518296
      3.96666670	     -0.20055287	    -11.98359611	     10.35066080	      0.39397527	      0.99449156	     -0.30223925	     42.86260895	     -1.63202126	     -3.85388686	     11.42697326	      0.19943831	    -14.85384777	    -16.16323597	     -7.49999985	     17.69202578	     -1.70383370	     11.47312157	     32.72391853	      0.57114012	     12.91894263	     -9.43621103	     -7.49999985	    -18.88925538	      2.64527459	     -0.99105965	     49.86604198	      1.37726536	     61.01906491	    120.75873152	     84.59371838	     56.20271755	      3.36586933	     76.42297467	    125.64373604	     75.58003295
